<svg xmlns="http://www.w3.org/2000/svg" width="29.212" height="25.961" viewBox="0 0 29.212 25.961"><defs><style>.a{fill:#184d47;}</style></defs><path class="a" d="M20.418,4.221,24.993,8.8a.5.5,0,0,1,0,.7L13.916,20.572l-4.706.522A.986.986,0,0,1,8.12,20L8.642,15.3,19.718,4.221A.5.5,0,0,1,20.418,4.221ZM28.634,3.06,26.159.585a1.984,1.984,0,0,0-2.8,0l-1.8,1.8a.5.5,0,0,0,0,.7l4.575,4.575a.5.5,0,0,0,.7,0l1.8-1.8a1.984,1.984,0,0,0,0-2.8Zm-9.159,14.5v5.163H3.246V6.494H14.9a.624.624,0,0,0,.431-.178L17.36,4.287a.609.609,0,0,0-.431-1.04H2.434A2.435,2.435,0,0,0,0,5.682V23.534a2.435,2.435,0,0,0,2.434,2.434H20.286a2.435,2.435,0,0,0,2.434-2.434v-8a.61.61,0,0,0-1.04-.431l-2.029,2.029A.624.624,0,0,0,19.475,17.56Z" transform="translate(0 -0.007)"/></svg>