<svg xmlns="http://www.w3.org/2000/svg" width="660.351" height="467.423" viewBox="0 0 660.351 467.423"><defs><style>.a{fill:#a6a6a6;}.b{fill:#dbdbdb;}.c{fill:#ebebeb;}.d{fill:#263238;}.e{fill:#1aa2e5;}.f{opacity:0.1;}.g{fill:#f7cda3;}.h{fill:#37474f;}.i{fill:#455a64;}.j{fill:#fff;}.k{fill:#ff99ba;}.l{opacity:0.3;}</style></defs><g transform="translate(-629.824 -279.358)"><g transform="translate(629.824 279.358)"><path class="a" d="M105.942,299.232c-19.981,19.558-23.37,49.822-19.134,76.333.117.6,1.052.438,1.052-.131,0-6.032-.19-12.006-.175-17.966.117-.278.2-.54.321-.8,5.214-3.8,10.049-8.063,12.97-13.905,3.345-6.573,4.659-13.964,7.2-20.829.248-.657-.453-.467-.92-.117C95.1,330.767,91.189,340.422,87.742,353.3a106.436,106.436,0,0,1,2.118-20.069c2.629-12.225,7.814-24.363,16.607-33.434a.388.388,0,1,0-.526-.57Z" transform="translate(4.263 -1.352)"/><path class="b" d="M104.155,306.461c3.432.117,5.594,5.609,8.267,7.216a2.585,2.585,0,0,0,3.8-.6c2.658-3.71-.993-8.282-4.382-10.838,2.454,1.008,4.484,2.775,7.128,3.286a2.5,2.5,0,0,0,3.213-1.928c1.154-5.054-5.171-7.3-9.523-7.405,2.1-1.461,8.15-5.448,4.937-7.405s-10.341,3.725-12.649,5.594c-3.4,2.761-7.449,6.88-7.61,11.188C97.071,310.609,101.467,307.513,104.155,306.461Z" transform="translate(9.847 -6.302)"/><path class="c" d="M103.216,305.85c4.382-2,12.839.876,13.555-.789,1.461-3.389-5.287-5.711-8.939-6.164,3.359-.906,9.786-2.352,9.6-5.58-.248-3.958-9.859-.555-14.738,3.17-6.12,4.7-6.091,9.246-5.068,10.151C99.009,307.88,102.486,306.172,103.216,305.85Z" transform="translate(9.749 -4.844)"/><path class="a" d="M68.691,297.9c20.712,18.784,25.225,48.9,22.012,75.558,0,.6-1.022.482-1.037-.088-.234-6.032-.278-12.021-.526-17.966l-.336-.8c-5.346-3.579-10.312-7.683-13.5-13.438-3.593-6.427-5.185-13.774-7.99-20.536-.263-.643.438-.482.906-.161,12.488,8.5,16.739,17.995,20.712,30.746a107.534,107.534,0,0,0-2.921-19.981c-3.1-12.123-8.764-24.042-17.878-32.776C67.844,298.094,68.341,297.568,68.691,297.9Z" transform="translate(-4 -1.966)"/><path class="b" d="M71.492,305.1c-3.432.248-5.375,5.843-7.99,7.522a2.571,2.571,0,0,1-3.812-.453c-2.79-3.608.672-8.311,4-11-2.41,1.11-4.382,2.921-7,3.549a2.483,2.483,0,0,1-3.286-1.855c-1.358-5.01,4.893-7.493,9.231-7.771-2.162-1.373-8.355-5.127-5.214-7.2s10.473,3.33,12.854,5.112c3.506,2.629,7.712,6.587,8.019,10.9C78.693,308.989,74.18,306.053,71.492,305.1Z" transform="translate(-10.467 -6.741)"/><path class="c" d="M71.032,304.447c-4.455-1.826-12.8,1.373-13.569-.263-1.577-3.33,5.068-5.843,8.764-6.5-3.389-.774-9.859-1.986-9.786-5.214.088-3.958,9.83-.935,14.84,2.615,6.3,4.469,6.427,9,5.448,9.947C75.326,306.331,71.777,304.754,71.032,304.447Z" transform="translate(-8.984 -5.281)"/><path class="a" d="M88.58,354.014a203.892,203.892,0,0,0,6.441,29.709.745.745,0,1,0,1.461-.292c-1.359-9.143-3.842-18.141-5.2-27.284a136.5,136.5,0,0,1-1.592-28.029c.862-15.424,5.054-31.842,15.117-43.907.234-.292-.248-.687-.467-.424-20.157,23.5-16.943,52.305-16.929,54.89-2.921-9.728-5.843-20.887-16.593-30.79-.467-.424-.833-.219-.745.511C71.988,326.5,77,335.859,87.5,345.484,87.762,348.406,88.128,351.21,88.58,354.014Z" transform="translate(-2.71 -8.458)"/><path class="b" d="M96.613,293.846c3.622-1.607,8.632,3.009,12.211,3.316a2.921,2.921,0,0,0,3.637-2.527c.891-5.185-5.185-8.092-10.035-9.012,3.053-.19,6.047.614,9.041-.19a2.921,2.921,0,0,0,2.366-3.622c-1.329-5.843-9.041-4.966-13.6-2.921,1.461-2.585,5.711-9.757,1.461-10.224s-8.851,9.07-10.3,12.182c-2.147,4.572-4.28,10.9-2.264,15.439C91.355,301.7,94.349,296.271,96.613,293.846Z" transform="translate(5.704 -15.392)"/><path class="c" d="M95.9,293.522c3.564-4.28,13.774-5.55,13.671-7.639-.19-4.236-8.355-3.257-12.357-1.884,3.009-2.629,8.954-7.376,7.128-10.633-2.249-3.973-10.517,4.382-13.686,10.721-3.988,7.96-1.665,12.649-.161,13.073C92.572,297.758,95.318,294.237,95.9,293.522Z" transform="translate(5.758 -13.694)"/><path class="b" d="M76.461,335.583,67.58,403.5h54.043c-1.11-6.018-11.174-67.992-11.174-67.992Z" transform="translate(-3.853 15.406)"/><rect class="c" width="38.677" height="16.344" transform="translate(638.777 152.446) rotate(180)"/><rect class="c" width="38.677" height="16.344" transform="translate(660.351 131.836) rotate(180)"/><rect class="c" width="38.677" height="16.344" transform="translate(617.189 131.836) rotate(180)"/><rect class="c" width="38.677" height="16.344" transform="translate(60.251 363.244) rotate(180)"/><rect class="c" width="38.677" height="16.344" transform="translate(38.677 342.635) rotate(180)"/><rect class="c" width="38.677" height="16.344" transform="translate(660.351 363.229) rotate(180)"/><rect class="c" width="38.677" height="16.344" transform="translate(129.237)"/><rect class="c" width="38.677" height="16.344" transform="translate(107.648 20.609)"/></g><g transform="translate(679.486 697.478)"><path class="d" d="M57.95,382.25l70.125-.351,70.125-.131,140.264-.248,140.25.248,70.14.131,70.125.351-70.125.365-70.14.117-140.25.248L198.2,382.732l-70.125-.131Z" transform="translate(-57.95 -381.52)"/></g><g transform="translate(666.834 278.569)"><path class="e" d="M230.57,291.411h0a13.4,13.4,0,0,0-1.2-1.212h0a15.619,15.619,0,0,0-1.212-1.2h0a15.624,15.624,0,0,0-1.2-1.212h0a13.389,13.389,0,0,0-1.212-1.2h0c-.38-.424-.789-.833-1.2-1.212h0a11.586,11.586,0,0,0-1.2-1.2h0a15.821,15.821,0,0,0-1.212-1.212h0a11.58,11.58,0,0,0-1.2-1.2h0a15.627,15.627,0,0,0-1.212-1.2h0a17.426,17.426,0,0,0-4.28-3.432V156.434c0-.643-.307-.964-.307-1.607a3.433,3.433,0,0,0-.321-1.913c0-.321-.307-.964-.307-1.285a15.206,15.206,0,0,0-.657-1.928,2.352,2.352,0,0,1-.628-1.285,9.172,9.172,0,0,0-1.285-1.592c-.336-.321-.643-.949-.964-1.285l-1.285-1.285c0-.19-.248-.394-.526-.511l-.628-.643h-.073c0-.2-.234-.394-.511-.526l-.643-.628h0c0-.19-.248-.394-.526-.526l-.628-.628h0c0-.2-.248-.394-.526-.526l-.628-.643h0c0-.19-.248-.394-.526-.526l-.643-.628V138.4c0-.19-.248-.38-.526-.511l-.628-.643h-.073c0-.19-.234-.394-.511-.526l-.643-.628v-.073c0-.19-.248-.38-.526-.511l-.628-.643h-.073c0-.2-.234-.394-.511-.526l-.643-.628h0c0-.19-.248-.394-.526-.511l-.7-.7c0-.321-.628-.643-.964-.643a.307.307,0,0,0-.307-.321c-.643-.307-.979-.643-1.607-.964a19.78,19.78,0,0,1-1.592-1.285c-.321,0-.964-.307-1.285-.307-.643-.321-1.607-.321-1.928-.657a3.068,3.068,0,0,1-1.607-.307h-5.434a2,2,0,0,1-1.285.307c-.964.336-1.592.336-1.928.657-.628,0-.949.307-1.285.964a3.476,3.476,0,0,0-1.913.628c-.307.321-.964.657-1.285.964a3.287,3.287,0,0,1-1.592.964,4.381,4.381,0,0,1-.964,1.285c-.321.321-.321.628-.628.628l-119,146.954a17.1,17.1,0,0,0,1.592,23.56,10.806,10.806,0,0,0,1.227,1.227,9.511,9.511,0,0,0,1.212,1.212,10.811,10.811,0,0,0,1.227,1.227,10.68,10.68,0,0,0,1.212,1.227,10.685,10.685,0,0,0,1.227,1.212,10.683,10.683,0,0,0,1.212,1.227,10.683,10.683,0,0,0,1.227,1.212,10.68,10.68,0,0,0,1.212,1.227,10.673,10.673,0,0,0,1.227,1.212,16.621,16.621,0,0,0,2.512,2.322,15.7,15.7,0,0,0,10.882,3.841h88.689v12.138a17.528,17.528,0,0,0,5.726,13.146h0c.38.409.774.8,1.169,1.168h0a15.061,15.061,0,0,0,1.183,1.183h0c.38.409.774.8,1.183,1.169h0a15.079,15.079,0,0,0,1.183,1.183h0q.57.613,1.183,1.183h0a12.926,12.926,0,0,0,1.183,1.183h0c.365.409.76.8,1.169,1.183h0a15.066,15.066,0,0,0,1.183,1.183h0c.365.394.76.789,1.169,1.168h0a17.688,17.688,0,0,0,30.673-11.963V322.011h3.213a17.769,17.769,0,0,0,12.445-30.6Zm-62.69-68.65v51.765H126.164Z" transform="translate(-49.288 -79.385)"/><path class="f" d="M230.57,291.411h0a13.4,13.4,0,0,0-1.2-1.212h0a15.619,15.619,0,0,0-1.212-1.2h0a15.624,15.624,0,0,0-1.2-1.212h0a13.389,13.389,0,0,0-1.212-1.2h0c-.38-.424-.789-.833-1.2-1.212h0a11.586,11.586,0,0,0-1.2-1.2h0a15.821,15.821,0,0,0-1.212-1.212h0a11.58,11.58,0,0,0-1.2-1.2h0a15.627,15.627,0,0,0-1.212-1.2h0a17.426,17.426,0,0,0-4.28-3.432V156.434c0-.643-.307-.964-.307-1.607a3.433,3.433,0,0,0-.321-1.913c0-.321-.307-.964-.307-1.285a15.206,15.206,0,0,0-.657-1.928,2.352,2.352,0,0,1-.628-1.285,9.172,9.172,0,0,0-1.285-1.592c-.336-.321-.643-.949-.964-1.285l-1.285-1.285c0-.19-.248-.394-.526-.511l-.628-.643h-.073c0-.2-.234-.394-.511-.526l-.643-.628h0c0-.19-.248-.394-.526-.526l-.628-.628h0c0-.2-.248-.394-.526-.526l-.628-.643h0c0-.19-.248-.394-.526-.526l-.643-.628V138.4c0-.19-.248-.38-.526-.511l-.628-.643h-.073c0-.19-.234-.394-.511-.526l-.643-.628v-.073c0-.19-.248-.38-.526-.511l-.628-.643h-.073c0-.2-.234-.394-.511-.526l-.643-.628h0c0-.19-.248-.394-.526-.511l-.7-.7c0-.321-.628-.643-.964-.643a.307.307,0,0,0-.307-.321c-.643-.307-.979-.643-1.607-.964a19.78,19.78,0,0,1-1.592-1.285c-.321,0-.964-.307-1.285-.307-.643-.321-1.607-.321-1.928-.657a3.068,3.068,0,0,1-1.607-.307h-5.434a2,2,0,0,1-1.285.307c-.964.336-1.592.336-1.928.657-.628,0-.949.307-1.285.964a3.476,3.476,0,0,0-1.913.628c-.307.321-.964.657-1.285.964a3.287,3.287,0,0,1-1.592.964,4.381,4.381,0,0,1-.964,1.285c-.321.321-.321.628-.628.628l-119,146.954a17.1,17.1,0,0,0,1.592,23.56,10.806,10.806,0,0,0,1.227,1.227,9.511,9.511,0,0,0,1.212,1.212,10.811,10.811,0,0,0,1.227,1.227,10.68,10.68,0,0,0,1.212,1.227,10.685,10.685,0,0,0,1.227,1.212,10.683,10.683,0,0,0,1.212,1.227,10.683,10.683,0,0,0,1.227,1.212,10.68,10.68,0,0,0,1.212,1.227,10.673,10.673,0,0,0,1.227,1.212,16.621,16.621,0,0,0,2.512,2.322,15.7,15.7,0,0,0,10.882,3.841h88.689v12.138a17.528,17.528,0,0,0,5.726,13.146h0c.38.409.774.8,1.169,1.168h0a15.061,15.061,0,0,0,1.183,1.183h0c.38.409.774.8,1.183,1.169h0a15.079,15.079,0,0,0,1.183,1.183h0q.57.613,1.183,1.183h0a12.926,12.926,0,0,0,1.183,1.183h0c.365.409.76.8,1.169,1.183h0a15.066,15.066,0,0,0,1.183,1.183h0c.365.394.76.789,1.169,1.168h0a17.688,17.688,0,0,0,30.673-11.963V322.011h3.213a17.769,17.769,0,0,0,12.445-30.6Zm-62.69-68.65v51.765H126.164Z" transform="translate(-49.288 -79.385)"/><path class="e" d="M224.216,292.323a17.63,17.63,0,0,1-17.937,17.615h-3.2v24.349a17.615,17.615,0,1,1-35.23,0V309.938H66.965A15.643,15.643,0,0,1,56.156,306.1a17.133,17.133,0,0,1-2.921-24.6L171.692,134.108c.321,0,.321-.307.643-.628a4.382,4.382,0,0,0,.964-1.285,3.432,3.432,0,0,0,1.607-.964c.307-.321.949-.643,1.271-.964a3.447,3.447,0,0,1,1.928-.643c.321-.628.643-.949,1.285-.949.307-.321.949-.321,1.913-.643a1.928,1.928,0,0,0,1.285-.321h5.448a2.819,2.819,0,0,0,1.592.321c.321.321,1.285.321,1.928.643.321,0,.964.321,1.285.321.628.628,1.271.949,1.592,1.271.643.321.964.643,1.607.964a.321.321,0,0,1,.321.321c.321,0,.964.321.964.643l1.271,1.285c.321.321.643.949.964,1.271a8.764,8.764,0,0,1,1.285,1.607,2.439,2.439,0,0,0,.643,1.285,11.687,11.687,0,0,1,.628,1.913c0,.321.321.964.321,1.285a3.476,3.476,0,0,1,.321,1.928c0,.628.321.949.321,1.592V274.708h3.2a17.849,17.849,0,0,1,17.936,17.615ZM167.851,195.6l-63.727,79.108h63.727Z" transform="translate(-49.274 -79.523)"/><path class="e" d="M345.516,175.44a90.97,90.97,0,0,0-12.532-15.191,6.419,6.419,0,0,0-.555-.54l-.161-.161c-.146-.161-.292-.321-.453-.467-.409-.438-.847-.847-1.271-1.271l-.117-.1-.438-.438a1.67,1.67,0,0,0-.161-.161c-.146-.161-.292-.321-.453-.467-.409-.438-.847-.847-1.271-1.271l-.117-.1-.438-.438-.161-.161c-.146-.161-.292-.321-.453-.467-.409-.438-.847-.847-1.271-1.271l-.117-.1-.438-.438a1.581,1.581,0,0,0-.161-.161,4.7,4.7,0,0,0-.467-.467c-.394-.453-.833-.847-1.256-1.271l-.117-.1a4.136,4.136,0,0,0-.438-.438,1.574,1.574,0,0,0-.161-.161c-12.868-13.263-29.636-22.041-48.449-22.041-25.313,0-46.112,15.059-59.579,35.537-14.1,20.449-21.442,47.105-21.763,76.552.321,29.213,7.668,56.044,21.763,76.552a95.321,95.321,0,0,0,12.4,15.03l.643.628v.073l1.139,1.139c.19.219.394.409.584.6l.643.628.073.073,1.139,1.139.584.613.643.613a.176.176,0,0,1,.073.073l1.139,1.139.584.613.643.613a.146.146,0,0,1,.073.088l1.139,1.139.6.6.628.613.088.088,1.139,1.139c12.649,12.634,28.979,21.121,47.748,21.121,24.655,0,45.791-15.38,59.258-35.566,13.759-20.449,21.457-47.4,21.457-76.537C366.944,222.53,359.276,195.947,345.516,175.44ZM303.845,296.482c-9.29,13.759-19.865,19.85-29.782,19.85a29.432,29.432,0,0,1-16.9-5.843c-.453-.584-.891-1.2-1.329-1.84-8.968-13.452-15.38-33.945-15.38-56.687,0-23.063,6.412-43.235,15.38-56.965,9.626-13.452,20.449-19.85,30.425-19.543a26.8,26.8,0,0,1,16.067,5.258c.511.687,1.008,1.358,1.461,2.074,8.968,13.774,15.366,33.945,15.366,56.965C319.21,262.493,312.813,283.015,303.845,296.482Z" transform="translate(16.781 -79.505)"/><path class="f" d="M345.516,175.44a90.97,90.97,0,0,0-12.532-15.191,6.419,6.419,0,0,0-.555-.54l-.161-.161c-.146-.161-.292-.321-.453-.467-.409-.438-.847-.847-1.271-1.271l-.117-.1-.438-.438a1.67,1.67,0,0,0-.161-.161c-.146-.161-.292-.321-.453-.467-.409-.438-.847-.847-1.271-1.271l-.117-.1-.438-.438-.161-.161c-.146-.161-.292-.321-.453-.467-.409-.438-.847-.847-1.271-1.271l-.117-.1-.438-.438a1.581,1.581,0,0,0-.161-.161,4.7,4.7,0,0,0-.467-.467c-.394-.453-.833-.847-1.256-1.271l-.117-.1a4.136,4.136,0,0,0-.438-.438,1.574,1.574,0,0,0-.161-.161c-12.868-13.263-29.636-22.041-48.449-22.041-25.313,0-46.112,15.059-59.579,35.537-14.1,20.449-21.442,47.105-21.763,76.552.321,29.213,7.668,56.044,21.763,76.552a95.321,95.321,0,0,0,12.4,15.03l.643.628v.073l1.139,1.139c.19.219.394.409.584.6l.643.628.073.073,1.139,1.139.584.613.643.613a.176.176,0,0,1,.073.073l1.139,1.139.584.613.643.613a.146.146,0,0,1,.073.088l1.139,1.139.6.6.628.613.088.088,1.139,1.139c12.649,12.634,28.979,21.121,47.748,21.121,24.655,0,45.791-15.38,59.258-35.566,13.759-20.449,21.457-47.4,21.457-76.537C366.944,222.53,359.276,195.947,345.516,175.44ZM303.845,296.482c-9.29,13.759-19.865,19.85-29.782,19.85a29.432,29.432,0,0,1-16.9-5.843c-.453-.584-.891-1.2-1.329-1.84-8.968-13.452-15.38-33.945-15.38-56.687,0-23.063,6.412-43.235,15.38-56.965,9.626-13.452,20.449-19.85,30.425-19.543a26.8,26.8,0,0,1,16.067,5.258c.511.687,1.008,1.358,1.461,2.074,8.968,13.774,15.366,33.945,15.366,56.965C319.21,262.493,312.813,283.015,303.845,296.482Z" transform="translate(16.781 -79.505)"/><path class="e" d="M192.71,239.8c.321-29.461,7.7-56.044,21.778-76.537,13.452-20.449,34.266-35.552,59.579-35.552,24.655,0,45.791,15.059,59.243,35.552,13.774,20.449,21.457,47.076,21.457,76.537,0,29.213-7.683,56.059-21.457,76.552-13.452,20.171-34.588,35.552-59.243,35.552-25.313,0-46.127-15.38-59.579-35.552C200.437,295.858,193.031,268.953,192.71,239.8Zm126.505,0c0-23.049-6.4-43.235-15.366-56.965-9.29-13.452-19.85-19.85-29.782-19.529-9.932-.321-20.829,6.076-30.425,19.529-8.968,13.774-15.38,33.96-15.38,56.965,0,22.742,6.412,43.249,15.38,56.687,9.6,13.774,20.449,19.865,30.425,19.865s20.449-6.091,29.782-19.865C312.818,283.048,319.215,262.512,319.215,239.8Z" transform="translate(16.776 -79.523)"/><path class="e" d="M503.893,291.411h0c-.38-.424-.789-.833-1.2-1.212h0c-.394-.424-.8-.818-1.212-1.2h0c-.394-.424-.789-.833-1.2-1.212h0c-.394-.424-.8-.833-1.212-1.2h0c-.394-.424-.789-.833-1.2-1.212h0c-.394-.424-.8-.833-1.212-1.2h0c-.394-.424-.8-.833-1.2-1.212h0a15.422,15.422,0,0,0-1.2-1.2h0c-.394-.424-.8-.818-1.212-1.2h0a17.162,17.162,0,0,0-4.294-3.432V156.434c0-.643-.307-.964-.307-1.607a3.433,3.433,0,0,0-.321-1.913c0-.321-.307-.964-.307-1.285a15.209,15.209,0,0,0-.657-1.928,2.469,2.469,0,0,1-.628-1.285,8.512,8.512,0,0,0-1.285-1.592c-.336-.321-.643-.949-.964-1.285l-1.285-1.285c0-.19-.248-.394-.526-.511l-.628-.643h-.073c0-.2-.234-.394-.511-.526l-.643-.628h0c0-.19-.248-.394-.526-.526l-.628-.628h0c0-.2-.248-.394-.526-.526l-.628-.643h0c0-.19-.248-.394-.526-.526l-.643-.628V138.4c0-.19-.248-.38-.526-.511l-.628-.643h-.073c0-.19-.234-.394-.511-.526l-.643-.628v-.073c0-.19-.248-.38-.526-.511l-.628-.643h-.073c0-.2-.234-.394-.511-.526l-.643-.628h0c0-.19-.248-.394-.526-.511l-.7-.7c0-.321-.628-.643-.964-.643a.321.321,0,0,0-.321-.321c-.628-.307-.964-.643-1.592-.964a19.784,19.784,0,0,1-1.592-1.285c-.321,0-.964-.307-1.285-.307-.643-.321-1.592-.321-1.928-.657a3.038,3.038,0,0,1-1.607-.307h-5.434a2,2,0,0,1-1.285.307c-.964.336-1.592.336-1.928.657-.628,0-.949.307-1.285.964a3.506,3.506,0,0,0-1.913.628c-.307.321-.964.657-1.271.964a3.432,3.432,0,0,1-1.607.964,4.644,4.644,0,0,1-.964,1.285c-.321.321-.321.628-.628.628L326.529,281.362a17.1,17.1,0,0,0,1.592,23.56,10.82,10.82,0,0,0,1.227,1.227,9.507,9.507,0,0,0,1.212,1.212,10.817,10.817,0,0,0,1.227,1.227q1.837,1.822,3.652,3.666,1.234,1.2,2.439,2.439a10.668,10.668,0,0,0,1.227,1.212,16.621,16.621,0,0,0,2.512,2.322,15.7,15.7,0,0,0,10.882,3.841h88.689v12.138a17.528,17.528,0,0,0,5.726,13.146h0c.38.424.789.818,1.183,1.183h0c.365.409.76.789,1.168,1.168h0a15.213,15.213,0,0,0,1.2,1.183h0c.38.409.76.789,1.168,1.169h0c.38.424.789.818,1.2,1.2h0c.38.409.76.8,1.168,1.169h0c.38.424.789.818,1.2,1.2h0c.38.409.76.8,1.168,1.169h0a15.266,15.266,0,0,0,1.183,1.2h0a17.688,17.688,0,0,0,30.673-11.977v-24h3.213a17.759,17.759,0,0,0,12.459-30.6Zm-62.7-68.65v51.765H399.473Z" transform="translate(76.593 -79.385)"/><path class="f" d="M503.893,291.411h0c-.38-.424-.789-.833-1.2-1.212h0c-.394-.424-.8-.818-1.212-1.2h0c-.394-.424-.789-.833-1.2-1.212h0c-.394-.424-.8-.833-1.212-1.2h0c-.394-.424-.789-.833-1.2-1.212h0c-.394-.424-.8-.833-1.212-1.2h0c-.394-.424-.8-.833-1.2-1.212h0a15.422,15.422,0,0,0-1.2-1.2h0c-.394-.424-.8-.818-1.212-1.2h0a17.162,17.162,0,0,0-4.294-3.432V156.434c0-.643-.307-.964-.307-1.607a3.433,3.433,0,0,0-.321-1.913c0-.321-.307-.964-.307-1.285a15.209,15.209,0,0,0-.657-1.928,2.469,2.469,0,0,1-.628-1.285,8.512,8.512,0,0,0-1.285-1.592c-.336-.321-.643-.949-.964-1.285l-1.285-1.285c0-.19-.248-.394-.526-.511l-.628-.643h-.073c0-.2-.234-.394-.511-.526l-.643-.628h0c0-.19-.248-.394-.526-.526l-.628-.628h0c0-.2-.248-.394-.526-.526l-.628-.643h0c0-.19-.248-.394-.526-.526l-.643-.628V138.4c0-.19-.248-.38-.526-.511l-.628-.643h-.073c0-.19-.234-.394-.511-.526l-.643-.628v-.073c0-.19-.248-.38-.526-.511l-.628-.643h-.073c0-.2-.234-.394-.511-.526l-.643-.628h0c0-.19-.248-.394-.526-.511l-.7-.7c0-.321-.628-.643-.964-.643a.321.321,0,0,0-.321-.321c-.628-.307-.964-.643-1.592-.964a19.784,19.784,0,0,1-1.592-1.285c-.321,0-.964-.307-1.285-.307-.643-.321-1.592-.321-1.928-.657a3.038,3.038,0,0,1-1.607-.307h-5.434a2,2,0,0,1-1.285.307c-.964.336-1.592.336-1.928.657-.628,0-.949.307-1.285.964a3.506,3.506,0,0,0-1.913.628c-.307.321-.964.657-1.271.964a3.432,3.432,0,0,1-1.607.964,4.644,4.644,0,0,1-.964,1.285c-.321.321-.321.628-.628.628L326.529,281.362a17.1,17.1,0,0,0,1.592,23.56,10.82,10.82,0,0,0,1.227,1.227,9.507,9.507,0,0,0,1.212,1.212,10.817,10.817,0,0,0,1.227,1.227q1.837,1.822,3.652,3.666,1.234,1.2,2.439,2.439a10.668,10.668,0,0,0,1.227,1.212,16.621,16.621,0,0,0,2.512,2.322,15.7,15.7,0,0,0,10.882,3.841h88.689v12.138a17.528,17.528,0,0,0,5.726,13.146h0c.38.424.789.818,1.183,1.183h0c.365.409.76.789,1.168,1.168h0a15.213,15.213,0,0,0,1.2,1.183h0c.38.409.76.789,1.168,1.169h0c.38.424.789.818,1.2,1.2h0c.38.409.76.8,1.168,1.169h0c.38.424.789.818,1.2,1.2h0c.38.409.76.8,1.168,1.169h0a15.266,15.266,0,0,0,1.183,1.2h0a17.688,17.688,0,0,0,30.673-11.977v-24h3.213a17.759,17.759,0,0,0,12.459-30.6Zm-62.7-68.65v51.765H399.473Z" transform="translate(76.593 -79.385)"/><path class="e" d="M497.549,292.323a17.63,17.63,0,0,1-17.936,17.615h-3.2v24.349a17.615,17.615,0,1,1-35.23,0V309.938H340.3a15.643,15.643,0,0,1-10.882-3.841,17.133,17.133,0,0,1-2.921-24.655l118.53-147.334c.321,0,.321-.307.643-.628a4.383,4.383,0,0,0,.964-1.285,3.433,3.433,0,0,0,1.607-.964c.321-.321.964-.643,1.285-.964a3.36,3.36,0,0,1,1.913-.643c.321-.628.643-.949,1.271-.949.321-.321.964-.321,1.928-.643a1.928,1.928,0,0,0,1.285-.321h5.448a2.819,2.819,0,0,0,1.592.321c.321.321,1.285.321,1.928.643.321,0,.964.321,1.285.321.643.628,1.271.949,1.592,1.271.643.321.964.643,1.607.964a.321.321,0,0,1,.321.321c.321,0,.949.321.949.643l1.285,1.285c.321.321.643.949.964,1.271a8.759,8.759,0,0,1,1.285,1.607,2.44,2.44,0,0,0,.643,1.285,13.146,13.146,0,0,1,.643,1.913c0,.321.307.964.307,1.285a3.477,3.477,0,0,1,.321,1.928c0,.628.321.949.321,1.592V274.708h3.2A17.849,17.849,0,0,1,497.549,292.323ZM441.183,195.6l-63.727,79.108h63.727Z" transform="translate(76.584 -79.523)"/></g><g transform="translate(867.983 349.786)"><path class="d" d="M280.275,295.75a1.461,1.461,0,0,0,.949,1.592c1.534.234,3.4.482,5.477.774,6.178-13.409,12.488-23.969,10.706-19.792a75.733,75.733,0,0,0-5.3,20.536c2.41.321,8.033,1.008,10.838,1.344,6.456-23.925,13.569-41.511,12.737-35.99-3.389,22.275-2.79,29.549-2.016,37.334,26.189,3.184,60.587,6.953,85.52,9.1,4.075-13.146,7.887-27.518,8.238-26.467,2.731,7.814,2.673,18.857,1.986,27.328,7.946.628,14.314.964,18.214.964,0,0,2.921-11.13,3.447-14.811a82.19,82.19,0,0,0-.263-28.424c-1.8-9.582-5.623-18.2-9.2-27.007a1.188,1.188,0,0,0-.044-.161h0a81.8,81.8,0,0,1-5.083-17.951.365.365,0,0,1,0-.146,80.828,80.828,0,0,1-.862-13.569c.321-16.622-7.128-31.564-21.281-36.969-24.173-24.7-57.374-13.365-66.751,7.522h0c-3.666,9.363-7.3,21.588-10.473,31.009h0a.1.1,0,0,1,0,.1h0a95.864,95.864,0,0,1-4.25,10.838C304.171,239.735,287.432,248.411,280.275,295.75Z" transform="translate(-144.045 -136.143)"/><path class="d" d="M362.682,172.4c9.07,6,14.241,14.2,14.606,26.379.234,7.1,0,14.007,2,20.829,2,7.04,5.623,12.97,9.377,18.886,5.945,9.406,9.859,18.638,9.845,30.556s-1.811,26.291-6.617,37.231c0,.073-.117,0-.088,0,4.09-11.174,5.58-26.919,4.747-38.984-.92-13.263-7.113-22-13.336-32.47a56.161,56.161,0,0,1-8.048-27.489c-.175-6.018.467-12.225-1.285-18.01-2.074-6.894-7.04-11.554-12.006-15.716C361.221,173.018,362,171.952,362.682,172.4Z" transform="translate(-106.564 -130.203)"/><path class="d" d="M296.339,233.6c7.566-8.9,15.293-16.388,20.288-27.752,4.543-10.356,7.6-21.413,12.2-31.74,0-.175.307-.088.234.1-7.3,18.4-10.108,37.3-22.873,52.305-6.953,8.15-13.832,15.673-18.828,25.678a99.075,99.075,0,0,0-9.436,33.594.271.271,0,1,1-.54,0A81.226,81.226,0,0,1,296.339,233.6Z" transform="translate(-145.371 -129.41)"/><path class="g" d="M240.084,429.642s70.5,18.988,82.16,16.943,51.005-55.007,59.74-74.215,23.239-114.762,20.449-125.278-17.381-10.663-29.695,16.447-41.424,86.7-46.609,91.611S234.4,424.559,240.084,429.642Z" transform="translate(-162.674 -98.776)"/><path class="g" d="M325.55,385.048c-10.809-5.653-23.969-19.368-32.937-20.8a10.414,10.414,0,0,0-11.2,5.346s-4.119-9.158-12.474-9.114c-4.28,0-8.019,6.894-8.019,6.894s-3.637-7.2-11.042-6.7c-5.916.394-8.764,7.23-8.764,7.23s-6.69-5.287-12.591-2.921c-11.948,4.718-13.934,55.5,4.47,64.092,8.574,4,8.384-8.428,8.384-8.428s4.586,17.82,15.044,18.492,9.246-15.453,9.246-15.453,4.6,17.221,15.512,16.826c11.364-.394,7.391-16.33,7.391-16.33s7.216,11.6,15.5,9.377c13.686-3.652-1.022-31.141,2.074-42.2H323.33Z" transform="translate(-172.1 -43.519)"/><path class="g" d="M282.587,372.769c10.706,4.47,22.917-12.43,33.93-8.5,14.285,5.1,1.081,22.727-20.566,25.59H278.76Z" transform="translate(-144.736 -42.049)"/><path class="d" d="M234.995,366.291a.131.131,0,1,0-.263,0c-4.718,16.549-4.849,36.18,1.066,52.451.19.526,1.154.453,1.052-.175C233.958,400.572,232.818,384.418,234.995,366.291Z" transform="translate(-166.611 -40.903)"/><path class="d" d="M248.809,365.054a.183.183,0,0,0-.365,0c-4.776,17.089-4.382,39.189,4.718,57.154.307.613,1.212.847.906.117C248.97,409.939,246.764,381.4,248.809,365.054Z" transform="translate(-160.093 -41.491)"/><path class="d" d="M270.966,422.212c-7.99-17.528-9.552-35.888-8.442-54.964,0-.248-.336-.248-.409,0-3.082,9.187-2.512,21.413-1.271,30.892a50.684,50.684,0,0,0,9.45,24.334C270.558,422.782,271.142,422.592,270.966,422.212Z" transform="translate(-153.447 -40.487)"/><path class="d" d="M332.736,364.6c-7.011-2.337-14.212,3.272-20.113,6.412a35.051,35.051,0,0,1-5.945,2.819c-4.674,1.461-8.136.526-10.224-.774-3.272-2.089-13.482-12.284-20.858-8.9a15.716,15.716,0,0,0-6.31,5.361c-2.249-4.09-5.127-8.545-10.108-9.363a7.887,7.887,0,0,0-6.251,1.621,12.828,12.828,0,0,0-2.454,2.5,11.583,11.583,0,0,0-1.694,2.79.944.944,0,0,1,0-.1l-.161-.307-.307-.628a6.559,6.559,0,0,0-1.738-2.176,1.461,1.461,0,0,0-1.066-.438.117.117,0,0,0,0,.234,1.694,1.694,0,0,1,.789.774c.234.351.453.716.7,1.052s.482.687.73,1.022l.365.54.161.278a1.888,1.888,0,0,0,.234.248.219.219,0,0,0,.351,0h0a14.608,14.608,0,0,0,2.03-2.22A17.528,17.528,0,0,1,253.307,363a7.581,7.581,0,0,1,6-1.461c4.47.876,7.3,4.849,9.684,8.4h.073c-.073.117.088.219.175.131,2.454-2.147,4.791-4.557,8.18-5.054,3.652-.54,7.113,1.212,10.137,3.053a46.747,46.747,0,0,1,4.382,2.921c1.242.964,2.425,2.045,3.754,2.921,5.682,3.579,11.9.8,13.452.146a77.923,77.923,0,0,0,8.866-4.7,25.005,25.005,0,0,1,9.494-3.841,9.333,9.333,0,0,1,8.442,3.155c1.066,1.373,2.425,3.944-.365,9.8,0,0,0,.117.088.073C337.132,377.025,341.777,367.619,332.736,364.6Z" transform="translate(-160.107 -43.72)"/><path class="h" d="M368.342,337,301.81,326.363s31.783-62.939,50.874-81.2c18.842-18.024,28.015.438,25.24,28.278C374.856,304.308,368.342,337,368.342,337Z" transform="translate(-134.118 -99.932)"/><path class="d" d="M364.02,299.857c-1.87-.438-3.783-.716-5.653-1.139s-3.666-.687-5.507-.964c-3.754-.584-7.522-1.11-11.276-1.621-7.42-1.022-14.84-2.147-22.289-2.921-4.236-.467-8.442-1.11-12.693-1.461-.131,0-.146.2,0,.234,7.376,1.724,14.884,2.921,22.362,4.221s14.84,2.352,22.289,3.155c2.089.234,4.192.5,6.281.6s4.309.307,6.456.336a.22.22,0,1,0,.029-.438Z" transform="translate(-131.958 -75.178)"/><path class="i" d="M326.335,449.454h176.2S429.295,267.693,392.063,241.139c-11.174-7.975-28.979-8.866-40.985,7.142-9.845,13.146-37.173,65.363-38.415,84.147s13.5,37.348,13.5,37.348Z" transform="translate(-129.153 -101.061)"/><path class="j" d="M361.94,297.784c.453-.117.891-.175,1.329-.263a2.644,2.644,0,0,1,3.228,2.571,2.045,2.045,0,0,0,.935,1.782,2.57,2.57,0,0,0,1.1.38,13.37,13.37,0,0,1,1.329.263c-.438.117-.876.175-1.329.263a2.6,2.6,0,0,1-1.461-.132,2.717,2.717,0,0,1-1.65-2.527,2.089,2.089,0,0,0-1.008-1.738,2.834,2.834,0,0,0-1.125-.336C362.831,297.959,362.393,297.9,361.94,297.784Z" transform="translate(-106.42 -72.55)"/><path class="j" d="M315.8,297.784c.438-.117.876-.175,1.315-.263a2.644,2.644,0,0,1,3.228,2.571,2.059,2.059,0,0,0,.949,1.782,2.44,2.44,0,0,0,1.1.38c.438.088.876.131,1.315.263-.438.117-.876.175-1.315.263a2.644,2.644,0,0,1-1.461-.131,2.761,2.761,0,0,1-1.651-2.527,2.089,2.089,0,0,0-1.008-1.738,2.76,2.76,0,0,0-1.125-.336C316.676,297.959,316.238,297.9,315.8,297.784Z" transform="translate(-127.674 -72.55)"/><path class="j" d="M378.7,357.721c.438-.117.891-.175,1.329-.263a2.659,2.659,0,0,1,3.213,2.585,2.1,2.1,0,0,0,.949,1.782,2.557,2.557,0,0,0,1.1.365c.438.088.891.146,1.329.263-.438.131-.891.19-1.329.278a2.613,2.613,0,0,1-1.461-.146,2.746,2.746,0,0,1-1.665-2.527,2,2,0,0,0-1.008-1.724,2.483,2.483,0,0,0-1.11-.336A13.669,13.669,0,0,1,378.7,357.721Z" transform="translate(-98.7 -44.938)"/><path class="j" d="M399.56,301.024c.438-.131.891-.175,1.329-.263a2.629,2.629,0,0,1,3.213,2.571,2.089,2.089,0,0,0,.949,1.782,2.323,2.323,0,0,0,1.1.365c.438.1.891.146,1.329.278-.438.117-.891.175-1.329.263a2.586,2.586,0,0,1-1.461-.132,2.746,2.746,0,0,1-1.665-2.527,2.03,2.03,0,0,0-1.008-1.738,2.688,2.688,0,0,0-1.11-.336C400.451,301.141,400,301.141,399.56,301.024Z" transform="translate(-89.092 -71.058)"/><path class="j" d="M346.23,270.532c.453-.117.891-.175,1.329-.263a2.6,2.6,0,0,1,1.461.1,2.673,2.673,0,0,1,1.738,2.483,2.133,2.133,0,0,0,.949,1.782,2.776,2.776,0,0,0,1.1.365c.453.088.891.146,1.329.263-.438.131-.876.175-1.329.278a2.746,2.746,0,0,1-1.461-.146,2.717,2.717,0,0,1-1.65-2.571,2.045,2.045,0,0,0-1.008-1.724,2.615,2.615,0,0,0-1.125-.351A7.213,7.213,0,0,1,346.23,270.532Z" transform="translate(-113.657 -85.101)"/><path class="j" d="M379.06,269.841c.438-.117.876-.175,1.329-.263a2.673,2.673,0,0,1,1.461.1,2.717,2.717,0,0,1,1.753,2.483,2.074,2.074,0,0,0,.949,1.782,2.5,2.5,0,0,0,1.1.365c.438.088.876.146,1.329.263-.453.131-.891.19-1.329.278a2.6,2.6,0,0,1-1.461-.146,2.746,2.746,0,0,1-1.665-2.527,2.03,2.03,0,0,0-1.008-1.724,2.483,2.483,0,0,0-1.11-.336A13.417,13.417,0,0,1,379.06,269.841Z" transform="translate(-98.534 -85.418)"/><path class="j" d="M357.81,238.334c.438-.117.891-.175,1.329-.263a2.629,2.629,0,0,1,3.213,2.571,2.06,2.06,0,0,0,.949,1.782,2.5,2.5,0,0,0,1.1.38c.438.088.891.131,1.329.263-.438.117-.891.175-1.329.263a2.585,2.585,0,0,1-1.461-.131,2.746,2.746,0,0,1-1.665-2.527,2.03,2.03,0,0,0-1.008-1.738,2.688,2.688,0,0,0-1.11-.336C358.7,238.509,358.248,238.451,357.81,238.334Z" transform="translate(-108.323 -99.935)"/><path class="j" d="M338.18,322.862c.438-.117.876-.175,1.315-.263a2.585,2.585,0,0,1,1.461.1,2.673,2.673,0,0,1,1.753,2.468,2.059,2.059,0,0,0,.949,1.782,2.439,2.439,0,0,0,1.1.38c.438.088.876.146,1.315.263-.438.131-.876.175-1.315.263a2.644,2.644,0,0,1-1.461-.132,2.761,2.761,0,0,1-1.651-2.527,2.089,2.089,0,0,0-1.008-1.738,2.834,2.834,0,0,0-1.125-.336A13.384,13.384,0,0,1,338.18,322.862Z" transform="translate(-117.365 -60.996)"/><path class="j" d="M374,377.8c.438-.131.891-.19,1.329-.278a2.658,2.658,0,0,1,3.213,2.585,2.1,2.1,0,0,0,.949,1.782,2.381,2.381,0,0,0,1.1.365c.438.088.891.146,1.329.263-.438.131-.891.19-1.329.278a2.615,2.615,0,0,1-1.461-.146,2.732,2.732,0,0,1-1.665-2.527,2,2,0,0,0-1.008-1.724,2.483,2.483,0,0,0-1.11-.336A12.891,12.891,0,0,1,374,377.8Z" transform="translate(-100.865 -35.698)"/><path class="j" d="M356.35,348.271c.438-.117.876-.175,1.315-.263a2.716,2.716,0,0,1,1.461.1,2.688,2.688,0,0,1,1.753,2.483,2.074,2.074,0,0,0,.949,1.782,2.424,2.424,0,0,0,1.1.365c.438.088.876.146,1.329.263-.453.131-.891.175-1.329.278a2.634,2.634,0,0,1-3.111-2.673,2.074,2.074,0,0,0-1.008-1.724,2.323,2.323,0,0,0-1.125-.336C357.3,348.446,356.788,348.4,356.35,348.271Z" transform="translate(-108.995 -49.29)"/><path class="j" d="M323.74,353.646c.453-.131.891-.19,1.329-.278a2.658,2.658,0,0,1,3.213,2.585,2.1,2.1,0,0,0,.949,1.782,2.38,2.38,0,0,0,1.1.365c.453.088.891.146,1.329.263a13.44,13.44,0,0,1-1.329.278,2.615,2.615,0,0,1-1.461-.146,2.731,2.731,0,0,1-1.665-2.527,2.015,2.015,0,0,0-.993-1.724,2.615,2.615,0,0,0-1.125-.336C324.631,353.821,324.193,353.763,323.74,353.646Z" transform="translate(-124.017 -46.822)"/><path class="j" d="M371.36,323.581c.438-.117.876-.175,1.315-.263A2.673,2.673,0,0,1,375.9,325.9a2.074,2.074,0,0,0,.949,1.782,2.423,2.423,0,0,0,1.1.365c.438.088.876.146,1.315.263-.438.131-.876.175-1.315.278a2.659,2.659,0,0,1-1.461-.146,2.761,2.761,0,0,1-1.651-2.527,2.074,2.074,0,0,0-1.008-1.724,2.425,2.425,0,0,0-1.125-.336C372.295,323.757,371.8,323.713,371.36,323.581Z" transform="translate(-102.081 -60.664)"/><path class="j" d="M413.05,363.992c.438-.117.891-.175,1.329-.263a2.6,2.6,0,0,1,1.461.1,2.673,2.673,0,0,1,1.738,2.483,2.132,2.132,0,0,0,.949,1.782,2.776,2.776,0,0,0,1.1.365c.453.088.891.146,1.329.263-.438.131-.876.175-1.329.278a2.658,2.658,0,0,1-3.14-2.673,2,2,0,0,0-1.008-1.724,2.482,2.482,0,0,0-1.11-.351A11.045,11.045,0,0,1,413.05,363.992Z" transform="translate(-82.878 -42.05)"/><path class="j" d="M396.5,339.321c.438-.117.891-.175,1.329-.263a2.658,2.658,0,0,1,3.213,2.585,2.074,2.074,0,0,0,.949,1.782,2.323,2.323,0,0,0,1.1.365c.438.088.891.146,1.329.263-.438.131-.891.19-1.329.278a2.6,2.6,0,0,1-1.461-.146,2.731,2.731,0,0,1-1.665-2.527,2,2,0,0,0-1.008-1.724,2.482,2.482,0,0,0-1.11-.336A13.669,13.669,0,0,1,396.5,339.321Z" transform="translate(-90.501 -53.413)"/><path class="j" d="M431.68,375.271c.453-.117.891-.175,1.329-.263a2.658,2.658,0,0,1,3.213,2.585,2.1,2.1,0,0,0,.949,1.782,2.38,2.38,0,0,0,1.1.365c.453.088.891.146,1.329.263a13.418,13.418,0,0,1-1.329.277,2.614,2.614,0,0,1-1.461-.146,2.7,2.7,0,0,1-1.651-2.527,2.074,2.074,0,0,0-1.008-1.724,2.614,2.614,0,0,0-1.125-.336C432.571,375.461,432.147,375.4,431.68,375.271Z" transform="translate(-74.296 -36.854)"/><path class="j" d="M351.819,287.464c-.219.394-.5.745-.745,1.125a2.644,2.644,0,0,1-4.1.453,2.045,2.045,0,0,0-1.928-.584,2.454,2.454,0,0,0-1.037.511,12.526,12.526,0,0,1-1.125.745c.234-.394.5-.745.745-1.125a2.673,2.673,0,0,1,1.154-.949,2.717,2.717,0,0,1,2.921.614,2.059,2.059,0,0,0,1.943.511,2.541,2.541,0,0,0,1.022-.555A13.422,13.422,0,0,0,351.819,287.464Z" transform="translate(-115.2 -77.158)"/><path class="j" d="M339.749,267.214c-.219.394-.5.745-.745,1.125a2.644,2.644,0,0,1-4.1.453,2.03,2.03,0,0,0-1.928-.584,2.454,2.454,0,0,0-1.037.511,12.532,12.532,0,0,1-1.125.745c.234-.394.5-.745.745-1.125a2.672,2.672,0,0,1,1.154-.949,2.717,2.717,0,0,1,2.921.614,2.045,2.045,0,0,0,1.943.511,2.542,2.542,0,0,0,1.022-.555C339,267.711,339.355,267.433,339.749,267.214Z" transform="translate(-120.76 -86.486)"/><path class="j" d="M400.8,322.712c-.234.409-.5.759-.745,1.125a2.746,2.746,0,0,1-1.125.979,2.673,2.673,0,0,1-2.921-.526,2.089,2.089,0,0,0-1.928-.584,2.469,2.469,0,0,0-1.037.511c-.38.248-.73.526-1.125.745.219-.394.5-.745.745-1.125a2.629,2.629,0,0,1,1.139-.949,2.76,2.76,0,0,1,2.921.613,2.016,2.016,0,0,0,1.928.511,2.627,2.627,0,0,0,1.037-.54C400.1,323.223,400.45,322.946,400.8,322.712Z" transform="translate(-92.611 -60.919)"/><path class="j" d="M370.279,257.084c-.219.394-.5.745-.745,1.125a2.687,2.687,0,0,1-1.11.964,2.717,2.717,0,0,1-2.994-.511,2.088,2.088,0,0,0-1.928-.6,2.542,2.542,0,0,0-1.037.511c-.38.248-.73.526-1.125.76.219-.409.5-.76.745-1.139a2.541,2.541,0,0,1,1.154-.935,2.717,2.717,0,0,1,2.921.613,2.1,2.1,0,0,0,1.986.555,2.732,2.732,0,0,0,1.022-.555C369.607,257.581,369.885,257.3,370.279,257.084Z" transform="translate(-106.697 -91.152)"/><path class="j" d="M349.1,242.124c-.219.394-.5.745-.745,1.125a2.8,2.8,0,0,1-1.11.979,2.717,2.717,0,0,1-2.994-.526,2.045,2.045,0,0,0-1.928-.584,2.381,2.381,0,0,0-1.037.511c-.38.248-.73.526-1.125.745.219-.394.5-.745.745-1.125a2.585,2.585,0,0,1,1.154-.949,2.717,2.717,0,0,1,2.921.614,2.03,2.03,0,0,0,1.943.511,2.541,2.541,0,0,0,1.022-.555C348.354,242.621,348.69,242.343,349.1,242.124Z" transform="translate(-116.453 -98.043)"/><path class="j" d="M367.861,276.12c.131.438.175.891.277,1.329a2.921,2.921,0,0,1-.1,1.461,2.7,2.7,0,0,1-2.483,1.738,2.089,2.089,0,0,0-1.782.949,2.322,2.322,0,0,0-.365,1.1c-.1.438-.146.891-.278,1.329-.117-.438-.175-.891-.263-1.329a2.482,2.482,0,0,1,.146-1.461,2.717,2.717,0,0,1,2.527-1.665,2.016,2.016,0,0,0,1.724-1.008,2.687,2.687,0,0,0,.336-1.11C367.686,277.011,367.744,276.558,367.861,276.12Z" transform="translate(-106.017 -82.378)"/><path class="j" d="M360.654,329.39c.117.438.175.891.263,1.329a2.658,2.658,0,0,1-2.585,3.213,2.074,2.074,0,0,0-1.782.949,2.5,2.5,0,0,0-.365,1.1c-.088.438-.146.891-.263,1.329-.131-.438-.19-.891-.278-1.329a2.6,2.6,0,0,1,.146-1.461,2.746,2.746,0,0,1,2.527-1.665,2,2,0,0,0,1.724-1.008,2.483,2.483,0,0,0,.336-1.11C360.464,330.281,360.567,329.828,360.654,329.39Z" transform="translate(-109.341 -57.84)"/><path class="j" d="M430.589,354.07c.131.438.19.876.278,1.315a2.673,2.673,0,0,1-2.585,3.228,2.074,2.074,0,0,0-1.782.949,2.265,2.265,0,0,0-.365,1.1c-.088.438-.146.876-.263,1.315-.131-.438-.19-.876-.278-1.315a2.658,2.658,0,0,1,.146-1.461,2.746,2.746,0,0,1,2.527-1.651,2.074,2.074,0,0,0,1.724-1.008,2.613,2.613,0,0,0,.336-1.125C430.428,354.946,430.487,354.508,430.589,354.07Z" transform="translate(-77.12 -46.472)"/><path class="j" d="M398.194,283.5c.117.438.175.876.263,1.329a2.672,2.672,0,0,1-.1,1.461,2.717,2.717,0,0,1-2.483,1.753,2.074,2.074,0,0,0-1.782.949,2.5,2.5,0,0,0-.365,1.1c-.088.438-.146.876-.263,1.329-.131-.453-.175-.891-.278-1.329a2.658,2.658,0,0,1,2.673-3.14,2.03,2.03,0,0,0,1.724-1.008,2.322,2.322,0,0,0,.336-1.11C398.019,284.376,398.062,283.938,398.194,283.5Z" transform="translate(-92.049 -78.978)"/><path class="j" d="M398.192,369c.117.438.175.876.263,1.315a2.673,2.673,0,0,1-2.585,3.228,2.074,2.074,0,0,0-1.782.949,2.425,2.425,0,0,0-.365,1.1c-.088.438-.146.876-.263,1.315-.131-.438-.175-.876-.278-1.315a2.79,2.79,0,0,1,.146-1.461,2.761,2.761,0,0,1,2.527-1.651,2.074,2.074,0,0,0,1.723-1.008,2.322,2.322,0,0,0,.336-1.125C398.017,369.92,398.061,369.482,398.192,369Z" transform="translate(-92.047 -39.594)"/><path class="j" d="M414.641,320.05c.131.438.175.891.263,1.329a2.629,2.629,0,0,1-2.571,3.213,2.089,2.089,0,0,0-1.782.949,2.322,2.322,0,0,0-.365,1.1c-.1.438-.146.891-.278,1.329-.117-.438-.175-.891-.263-1.329a2.483,2.483,0,0,1,.146-1.461,2.717,2.717,0,0,1,2.512-1.665,2.03,2.03,0,0,0,1.738-1.008,2.686,2.686,0,0,0,.336-1.11C414.466,320.941,414.568,320.488,414.641,320.05Z" transform="translate(-84.469 -62.142)"/><path class="j" d="M331.28,331.3c.131.438.175.876.263,1.315a2.644,2.644,0,0,1-2.571,3.228,2.06,2.06,0,0,0-1.782.949,2.264,2.264,0,0,0-.365,1.1c-.1.438-.146.876-.278,1.315-.117-.438-.175-.876-.263-1.315a2.541,2.541,0,0,1,.146-1.461,2.717,2.717,0,0,1,2.512-1.651,2.089,2.089,0,0,0,1.738-1.008,2.689,2.689,0,0,0,.336-1.125C331.105,332.176,331.163,331.738,331.28,331.3Z" transform="translate(-122.866 -56.96)"/><path class="j" d="M332.9,283.5a13.353,13.353,0,0,1,.263,1.329,2.659,2.659,0,0,1-.088,1.461,2.717,2.717,0,0,1-2.483,1.753,2.06,2.06,0,0,0-1.782.949,2.323,2.323,0,0,0-.365,1.1c-.1.438-.146.876-.278,1.329-.117-.453-.175-.891-.263-1.329a2.585,2.585,0,0,1,.131-1.461,2.746,2.746,0,0,1,2.527-1.665,2.059,2.059,0,0,0,1.738-1.008,2.688,2.688,0,0,0,.336-1.11C332.726,284.376,332.784,283.938,332.9,283.5Z" transform="translate(-122.121 -78.978)"/><path class="j" d="M350.344,252.43c.117.438.175.876.263,1.329a2.673,2.673,0,0,1-.1,1.461,2.717,2.717,0,0,1-2.483,1.753,2.074,2.074,0,0,0-1.782.949,2.5,2.5,0,0,0-.365,1.1c-.088.438-.146.876-.263,1.329-.131-.453-.175-.891-.278-1.329a2.658,2.658,0,0,1,.146-1.461,2.761,2.761,0,0,1,2.527-1.651,2.03,2.03,0,0,0,1.724-1.008,2.322,2.322,0,0,0,.336-1.11A13.854,13.854,0,0,1,350.344,252.43Z" transform="translate(-114.09 -93.29)"/><path class="j" d="M345.664,300.46c.117.453.175.891.263,1.329a2.673,2.673,0,0,1-2.585,3.228,2.074,2.074,0,0,0-1.782.949,2.424,2.424,0,0,0-.365,1.1c-.088.438-.146.876-.263,1.315-.131-.438-.19-.876-.278-1.315a2.658,2.658,0,0,1,.146-1.461,2.76,2.76,0,0,1,2.527-1.651,2.074,2.074,0,0,0,1.724-1.008,2.614,2.614,0,0,0,.336-1.125C345.474,301.351,345.561,300.913,345.664,300.46Z" transform="translate(-116.245 -71.166)"/><path class="j" d="M387.694,306.92c.117.438.175.891.263,1.329a2.658,2.658,0,0,1-2.585,3.213,2.1,2.1,0,0,0-1.782.949,2.556,2.556,0,0,0-.365,1.1c-.088.438-.146.891-.263,1.329-.131-.438-.175-.891-.278-1.329a2.615,2.615,0,0,1,.146-1.461,2.746,2.746,0,0,1,2.527-1.665,2,2,0,0,0,1.724-1.008,2.324,2.324,0,0,0,.336-1.11C387.548,307.811,387.548,307.358,387.694,306.92Z" transform="translate(-96.886 -68.19)"/><path class="j" d="M348.841,360.86c.117.453.175.891.263,1.329a2.644,2.644,0,0,1-2.571,3.228,2.03,2.03,0,0,0-1.782.949,2.44,2.44,0,0,0-.38,1.081,13.354,13.354,0,0,1-.263,1.329c-.117-.438-.175-.876-.263-1.329a2.6,2.6,0,0,1,.131-1.461,2.717,2.717,0,0,1,2.527-1.65,2.089,2.089,0,0,0,1.738-1.008,2.834,2.834,0,0,0,.336-1.125C348.666,361.751,348.724,361.313,348.841,360.86Z" transform="translate(-114.778 -43.344)"/><path class="j" d="M378.89,292.4c.234-.394.511-.745.76-1.125a2.585,2.585,0,0,1,1.11-.964,2.688,2.688,0,0,1,2.921.511,2.118,2.118,0,0,0,1.943.6,2.5,2.5,0,0,0,1.022-.511c.38-.263.73-.526,1.139-.759-.234.409-.511.76-.759,1.139a2.6,2.6,0,0,1-1.139.935,2.746,2.746,0,0,1-2.921-.613,2.074,2.074,0,0,0-1.928-.511,2.732,2.732,0,0,0-1.022.555A12.506,12.506,0,0,1,378.89,292.4Z" transform="translate(-98.613 -75.944)"/><path class="j" d="M354.38,314.622c.219-.394.5-.745.745-1.125a2.644,2.644,0,0,1,4.1-.453,2.03,2.03,0,0,0,1.928.584,2.455,2.455,0,0,0,1.037-.511,12.488,12.488,0,0,1,1.125-.745c-.234.394-.5.745-.745,1.125a2.658,2.658,0,0,1-4.119.336,2.03,2.03,0,0,0-1.928-.511,2.732,2.732,0,0,0-1.023.555C355.125,314.126,354.774,314.4,354.38,314.622Z" transform="translate(-109.903 -65.727)"/><path class="j" d="M337.76,347.342c.234-.409.511-.76.759-1.125a2.644,2.644,0,0,1,4.1-.453,2.074,2.074,0,0,0,1.928.584,2.454,2.454,0,0,0,1.037-.511,12.494,12.494,0,0,1,1.125-.745c-.234.394-.5.745-.745,1.125a2.644,2.644,0,0,1-4.1.336,2.045,2.045,0,0,0-1.943-.511,2.5,2.5,0,0,0-1.023.54C338.52,346.846,338.111,347.109,337.76,347.342Z" transform="translate(-117.558 -50.655)"/><path class="j" d="M344.94,381.318c.234-.394.511-.745.76-1.125a2.584,2.584,0,0,1,1.11-.964,2.717,2.717,0,0,1,2.921.511,2.074,2.074,0,0,0,1.928.6,2.5,2.5,0,0,0,1.037-.526c.365-.248.716-.511,1.125-.745-.234.409-.5.76-.745,1.125a2.658,2.658,0,0,1-1.154.949,2.746,2.746,0,0,1-2.921-.613,2.074,2.074,0,0,0-1.928-.511,2.731,2.731,0,0,0-1.022.555A10.468,10.468,0,0,1,344.94,381.318Z" transform="translate(-114.251 -34.983)"/><path class="j" d="M377.09,343.965c.219-.394.5-.745.745-1.125a2.688,2.688,0,0,1,1.11-.964,2.717,2.717,0,0,1,2.994.511,2.074,2.074,0,0,0,1.928.6,2.645,2.645,0,0,0,1.037-.511c.365-.248.716-.526,1.125-.76-.234.409-.5.76-.745,1.139a2.542,2.542,0,0,1-1.154.935,2.717,2.717,0,0,1-2.921-.613,2.1,2.1,0,0,0-1.943-.511,2.731,2.731,0,0,0-1.022.555C377.835,343.468,377.484,343.746,377.09,343.965Z" transform="translate(-99.442 -52.2)"/><path class="j" d="M399.21,357.5c.219-.394.5-.745.745-1.125a2.775,2.775,0,0,1,1.11-.964,2.717,2.717,0,0,1,2.921.511,2.089,2.089,0,0,0,1.928.6,2.542,2.542,0,0,0,1.037-.511c.38-.248.73-.526,1.125-.76-.219.409-.5.76-.745,1.139a2.469,2.469,0,0,1-1.154.935,2.717,2.717,0,0,1-2.921-.613,2.1,2.1,0,0,0-1.943-.511,2.732,2.732,0,0,0-1.023.555A10.027,10.027,0,0,1,399.21,357.5Z" transform="translate(-89.253 -45.956)"/><path class="j" d="M362,367.785c.219-.394.5-.745.745-1.125a2.585,2.585,0,0,1,1.11-.964,2.717,2.717,0,0,1,2.994.511,2.074,2.074,0,0,0,1.928.6,2.5,2.5,0,0,0,1.037-.526c.365-.248.716-.511,1.125-.745-.234.409-.5.76-.745,1.125a2.571,2.571,0,0,1-1.154.949,2.717,2.717,0,0,1-2.921-.613,2.1,2.1,0,0,0-1.943-.511,2.733,2.733,0,0,0-1.023.555C362.745,367.288,362.394,367.566,362,367.785Z" transform="translate(-106.393 -41.227)"/><path class="j" d="M410,381.325c.234-.394.5-.745.745-1.125a2.673,2.673,0,0,1,1.11-.964,2.717,2.717,0,0,1,2.994.511,2.089,2.089,0,0,0,1.928.6,2.542,2.542,0,0,0,1.037-.511c.38-.263.73-.526,1.125-.76-.219.409-.5.76-.745,1.139a2.6,2.6,0,0,1-1.139.935,2.731,2.731,0,0,1-2.921-.614,2.089,2.089,0,0,0-1.928-.511,2.672,2.672,0,0,0-1.037.555C410.73,380.828,410.38,381.106,410,381.325Z" transform="translate(-84.283 -34.99)"/><path class="j" d="M415.41,344.739c.219-.409.5-.759.745-1.139a2.776,2.776,0,0,1,1.11-.964,2.717,2.717,0,0,1,2.994.511,2.089,2.089,0,0,0,1.928.6,2.543,2.543,0,0,0,1.037-.511c.38-.248.73-.526,1.125-.76-.219.409-.5.76-.745,1.139a2.469,2.469,0,0,1-1.154.935,2.717,2.717,0,0,1-2.921-.613,2.089,2.089,0,0,0-1.928-.511,2.672,2.672,0,0,0-1.037.555C416.155,344.243,415.8,344.52,415.41,344.739Z" transform="translate(-81.791 -51.849)"/><path class="j" d="M327.75,372.479c.234-.409.5-.76.745-1.139a2.775,2.775,0,0,1,1.11-.964,2.717,2.717,0,0,1,2.994.511,2.089,2.089,0,0,0,1.928.6,2.542,2.542,0,0,0,1.037-.511c.38-.248.73-.526,1.125-.759-.219.409-.5.76-.745,1.139a2.512,2.512,0,0,1-1.139.935,2.731,2.731,0,0,1-2.921-.614,2.045,2.045,0,0,0-1.928-.5,2.454,2.454,0,0,0-1.037.54C328.495,371.968,328.115,372.246,327.75,372.479Z" transform="translate(-122.169 -39.072)"/><path class="j" d="M325,315.388c.219-.394.5-.745.745-1.125a2.806,2.806,0,0,1,1.11-.979,2.717,2.717,0,0,1,2.994.526,2.045,2.045,0,0,0,1.928.584,2.22,2.22,0,0,0,1.037-.511c.38-.248.73-.526,1.125-.745a12.512,12.512,0,0,1-.745,1.125,2.629,2.629,0,0,1-1.139.949,2.731,2.731,0,0,1-2.921-.613,2.045,2.045,0,0,0-1.928-.511,2.672,2.672,0,0,0-1.037.555C325.76,314.891,325.409,315.169,325,315.388Z" transform="translate(-123.436 -65.368)"/><path class="g" d="M369.044,253.059c-.54,2.731-12.868,20.712-25.254,20.551-4.031-.073-4.674-22.1-4.674-22.1l-.424-1.607-5.843-22.611,26.189-18.068,3.8-2.4s1.183,6.3,2.6,14.139a8.228,8.228,0,0,0,.19,1.125c.058.394.19.847.248,1.271.234,1.169.453,2.366.657,3.564.161.906.307,1.782.438,2.746s.278,1.9.438,2.921a150.431,150.431,0,0,1,1.636,20.463Z" transform="translate(-119.82 -114.295)"/><path class="d" d="M365.437,220.969A46.9,46.9,0,0,1,338.693,249.9l-5.843-22.611,26.189-18.068,3.8-2.4S364.02,213.125,365.437,220.969Z" transform="translate(-119.82 -114.295)"/><path class="g" d="M310.881,213.595c-1.081,40.985,23.37,46.258,32.134,46.477,8.019.2,35.362-.117,40.679-40.766s-13.409-54.043-31.725-55.5S311.962,172.609,310.881,213.595Z" transform="translate(-129.956 -134.176)"/><path class="d" d="M315.691,190.822c.964-.161,1.811-.453,2.746-.7a4.674,4.674,0,0,0,2.658-1.256,1.461,1.461,0,0,0-.073-1.782,3.637,3.637,0,0,0-3.608-.686,5.287,5.287,0,0,0-3.243,2.016,1.563,1.563,0,0,0,1.519,2.41Z" transform="translate(-128.543 -123.804)"/><path class="d" d="M335.751,194.841a25.53,25.53,0,0,1-2.8-.467,4.586,4.586,0,0,1-2.746-1.008,1.461,1.461,0,0,1-.088-1.782,3.637,3.637,0,0,1,3.535-1.008,5.287,5.287,0,0,1,3.4,1.738,1.548,1.548,0,0,1-1.3,2.527Z" transform="translate(-121.202 -121.835)"/><path class="d" d="M320.079,198.5c0-.1-.2.146-.2.263.278,2.775.131,6-2.322,7.1-.088,0,0,.175,0,.161C320.62,205.377,320.78,201.083,320.079,198.5Z" transform="translate(-126.885 -118.144)"/><path class="d" d="M318.468,196.61c-4.5,0-4.25,8.968-.073,9.012S322.221,196.654,318.468,196.61Z" transform="translate(-127.961 -119.002)"/><path class="d" d="M317.662,197.173c-.7.5-1.373,1.373-2.235,1.461s-1.738-.862-2.4-1.782c0-.088-.131,0-.131.1,0,1.724.628,3.505,2.279,3.783s2.585-1.242,2.921-2.921C318.2,197.45,317.939,196.968,317.662,197.173Z" transform="translate(-129.01 -118.908)"/><path class="d" d="M333.548,214.833a4.525,4.525,0,0,1-2.41,1.563,7.391,7.391,0,0,1-2.921-.818.1.1,0,0,0-.131.146,3.754,3.754,0,0,0,3.506,1.636,2.921,2.921,0,0,0,2.279-2.4C333.811,214.8,333.65,214.745,333.548,214.833Z" transform="translate(-122.022 -110.627)"/><path class="d" d="M323.711,215.7s-.321,4.177-.219,6.135a40.457,40.457,0,0,1,11.393.993c.876.234.818-.482-.175-1.008a16.71,16.71,0,0,0-9.626-1.782c-.175-.54.628-6.427.321-6.427a17.134,17.134,0,0,0-4.382,1.256c.438-8.764,2.279-17.294,2.585-25.985a.263.263,0,0,0-.511-.1c-2.571,8.866-3.3,18.886-3.988,27.883C319.023,217.77,322.952,216.075,323.711,215.7Z" transform="translate(-126.15 -122.693)"/><path class="d" d="M338.922,198.784a8.91,8.91,0,0,0-5.156-.409,7.3,7.3,0,0,0-2.571,1.139,6.631,6.631,0,0,0-1.913,2.249l-.862,1.592,1.767-.19a17.744,17.744,0,0,1,3.739,0,7.654,7.654,0,0,1,3.622,1.285,5.6,5.6,0,0,0-3.3-2.673,10.459,10.459,0,0,0-4.265-.482l.906,1.461a6.514,6.514,0,0,1,3.3-2.761A19.688,19.688,0,0,1,338.922,198.784Z" transform="translate(-121.861 -118.284)"/><path class="d" d="M333.863,205.02a14.751,14.751,0,0,1-3.783-1.461c-.277-.175-1.344-.979-1.285-1.212a8.306,8.306,0,0,1,.7-1.957,5.4,5.4,0,0,0-1.1,1.9,2.7,2.7,0,0,0,1.373,1.826A7.844,7.844,0,0,0,333.863,205.02Z" transform="translate(-121.87 -117.261)"/><path class="d" d="M325.5,211.306s2.542,3.652,5.463,4.09c3.359.526,3.754-2.5,0-4.221C329.064,210.284,325.5,211.306,325.5,211.306Z" transform="translate(-123.206 -112.461)"/><path class="k" d="M330.294,214.976a6.806,6.806,0,0,1-3.374-1.8c.7-1.037,2.308-2.191,5.916-.248C333.361,214.158,332.427,215.239,330.294,214.976Z" transform="translate(-122.552 -111.968)"/><path class="d" d="M382.9,220.951c-6.748.847-9-13.277-9-13.277s-13.759.7-19.266-18.871a30.542,30.542,0,0,0,6.894,16.067s-24.407-1.461-35.61-21.223c0,0,4.586,10.151,8.589,13.642,0,0-10.327-2.337-15.687-10.37,0,0-3.681,11.933-6.792,15.337,0,0-1.066-42.519,38.5-39.919,0,0,24.714.438,34.515,19.514S382.9,220.951,382.9,220.951Z" transform="translate(-129.411 -134.843)"/><path class="g" d="M356.737,207.218s8.165-13.306,14.154-10.473.38,21.763-6.266,24.7a6.923,6.923,0,0,1-9.494-3.155Z" transform="translate(-109.557 -119.123)"/><path class="d" d="M367.986,200.31c.1,0,.131.131,0,.175-4.659,2.22-6.894,6.792-8.384,11.5,1.315-1.855,3.184-2.921,5.653-1.461.131.073,0,.278-.117.263a4.236,4.236,0,0,0-4.586,1.767,19.455,19.455,0,0,0-2.016,3.914c-.2.438-.979.263-.847-.234a.277.277,0,0,1,0-.117C357.28,210.082,361.486,201.318,367.986,200.31Z" transform="translate(-108.391 -117.298)"/><path class="j" d="M359,212.707a1.9,1.9,0,1,0,.478-1.383,1.913,1.913,0,0,0-.478,1.383Z" transform="translate(-107.776 -112.518)"/><path class="j" d="M362.141,210.306a1.227,1.227,0,1,0,1.154-1.285,1.212,1.212,0,0,0-1.154,1.285Z" transform="translate(-106.329 -113.287)"/><rect class="c" width="21.778" height="67.423" transform="matrix(0.974, -0.226, 0.226, 0.974, 101.685, 181.664)"/><path class="a" d="M258.19,145.891a92.02,92.02,0,1,0,110.5,68.854,92.02,92.02,0,0,0-110.5-68.854Zm37.275,160.479A72.681,72.681,0,1,1,349.8,219.157a72.681,72.681,0,0,1-54.336,87.214Z" transform="translate(-187.002 -143.477)"/><rect class="d" width="32.923" height="98.724" rx="6.27" transform="matrix(0.974, -0.226, 0.226, 0.974, 106.989, 229.203)"/><g class="l" transform="translate(19.329 19.382)"><path class="j" d="M343.705,213.015a72.666,72.666,0,1,1-87.229-54.365,72.666,72.666,0,0,1,87.229,54.365Z" transform="translate(-200.235 -156.747)"/><path class="c" d="M323.633,209.29a72.71,72.71,0,0,1-75.953,68.562Z" transform="translate(-178.381 -132.544)"/><path class="c" d="M312.039,168.174,208,262.078a72.255,72.255,0,0,1-5.843-16.228,71.3,71.3,0,0,1-1.811-19.675L277.16,156.84A72.578,72.578,0,0,1,312.039,168.174Z" transform="translate(-200.221 -156.704)"/><path class="c" d="M332.227,194.6l-99.1,89.434a72.581,72.581,0,0,1-12.313-7.2L326.341,181.6A70.3,70.3,0,0,1,332.227,194.6Z" transform="translate(-190.758 -145.299)"/><path class="c" d="M316.466,169.185,209.461,265.733c-.5-.73-.993-1.461-1.461-2.206L314.392,167.52A23,23,0,0,1,316.466,169.185Z" transform="translate(-196.659 -151.784)"/><path class="c" d="M251.29,158.68l-47.47,42.826c.8-2.03,1.709-4.017,2.7-5.945l38.6-34.851C247.128,159.965,249.187,159.279,251.29,158.68Z" transform="translate(-198.584 -155.856)"/></g><path class="j" d="M218.364,238.059a2.069,2.069,0,0,1,0-.292c-.263-1.461.19,1.388,0,.438a31.689,31.689,0,0,1-.38-3.374,70.607,70.607,0,0,1,0-11.919c0-.57.1-1.125.146-1.68,0-.175-.161,1.315,0,.131l.131-1.022c.175-1.315.394-2.629.657-3.929a64.927,64.927,0,0,1,2.235-8.457c.219-.657.467-1.315.7-1.972.307-.891-.409.979.073-.19l.482-1.154c.628-1.461,1.315-2.921,2.045-4.382s1.68-3.023,2.6-4.47c.438-.672.876-1.329,1.329-1.986.774-1.125-.365.453.234-.336l.862-1.139a66.956,66.956,0,0,1,8.881-9.2s.672-.54.175-.131.263-.219.351-.292l1.461-1.154c.979-.73,1.972-1.461,2.994-2.1a75.645,75.645,0,0,1,6.631-3.958,5.487,5.487,0,0,0-5.843-9.29c-14.431,7.7-26.291,19.85-32.251,35.172a75.5,75.5,0,0,0-5.039,32.411,54.248,54.248,0,0,0,.935,7.3,5.492,5.492,0,0,0,6.807,3.7,5.653,5.653,0,0,0,3.7-6.821Z" transform="translate(-177.937 -133.4)"/><path class="j" d="M221.321,226.984a5.361,5.361,0,1,1-2.591-3.2,5.375,5.375,0,0,1,2.591,3.2Z" transform="translate(-176.044 -106.785)"/><path class="g" d="M415.259,265.244c13.146,47.529,19.456,95.248,12.182,119.859-4.645,15.687-15.848,26.291-22.976,29.8-16.666,8.238-71.951-3.447-107.97-10.692-8.851-1.782,12.021-73.1,20.916-69.322,13.146,5.565,53.386,13.073,54.5,13.438,2.381.818,7.3-50.757,10.779-80.992C387.493,225.208,407.679,237.8,415.259,265.244Z" transform="translate(-137.553 -98.991)"/><path class="g" d="M250.6,298.564c-3.914,6.383,1.169,12.225,1.169,12.225a15.95,15.95,0,0,0-7.478,7.873c-2.352,6.135,6.237,12.518,6.237,12.518a19.587,19.587,0,0,0-6.558,9.553c-1.665,6.105,6.091,13.774,6.091,13.774a17.25,17.25,0,0,0-.482,12.036c3.871,10.385,20.449,13.788,30.965,16.067s42.475-1.169,48.639-1.2l15.118-67.379s-44.272-23.589-56.965-24.495C276.536,288.807,254.992,291.407,250.6,298.564Z" transform="translate(-160.872 -76.252)"/><path class="d" d="M249.775,303.662c11.685-1.913,23.166-.307,34.778.643a.2.2,0,1,1,0,.409c-11.554-1.081-23.166.131-34.719-.482a.292.292,0,0,1-.058-.57Z" transform="translate(-158.182 -70.103)"/><path class="d" d="M248.765,317.463a30.163,30.163,0,0,1,8,.511q4.221.555,8.428,1.256,8.428,1.461,16.768,3.228c.248,0,.234.438,0,.394-5.609-.92-11.218-1.753-16.841-2.439-2.819-.351-5.638-.657-8.472-.964a36.165,36.165,0,0,1-7.931-1.212.409.409,0,0,1,.044-.774Z" transform="translate(-158.691 -63.368)"/><path class="d" d="M248.248,334.033c2.279-.394,4.937.424,7.186.847,2.556.482,5.1.935,7.654,1.388,5.112.906,10.224,1.8,15.366,2.527.248,0,.219.438,0,.394-5.229-.7-10.458-1.344-15.673-2.089-2.556-.365-5.127-.76-7.683-1.154-2.176-.336-4.922-.511-6.865-1.651a.146.146,0,0,1,.015-.263Z" transform="translate(-158.832 -55.75)"/><path class="d" d="M265.252,290.9c-5.3.686-11.378,1.855-14.811,6.368a9.582,9.582,0,0,0-2.176,6.85,9.217,9.217,0,0,0,3.272,5.916h0a11.831,11.831,0,0,0-8.092,9.64,8.063,8.063,0,0,0,2.089,6.091c.73.862,1.563,1.621,2.366,2.41s1.694,1.461,2.527,2.147a22.222,22.222,0,0,0-2.527,2.308,17.773,17.773,0,0,0-2.352,2.775,12.4,12.4,0,0,0-2.308,6.792,12.181,12.181,0,0,0,2.425,6.7,13.891,13.891,0,0,0,4.864,4.879.117.117,0,0,0,.131-.19,20.039,20.039,0,0,1-3.958-4.981,12.81,12.81,0,0,1-2-6.631,13.291,13.291,0,0,1,2.191-6.237,32.769,32.769,0,0,1,2.016-2.921,25.524,25.524,0,0,0,2.016-2.425s-1.738-1.84-2.352-2.629-1.212-1.636-1.767-2.5a8.063,8.063,0,0,1-1.461-5.653,10.414,10.414,0,0,1,2.454-5.025c1.227-1.461,2.819-2.615,4.1-4.046a.657.657,0,0,0,.073-.511c-2.921-4.557-2.556-8.881.57-12.255a19.834,19.834,0,0,1,5.507-3.988,48.976,48.976,0,0,1,7.3-2.644C265.456,291.134,265.412,290.886,265.252,290.9Z" transform="translate(-161.097 -75.57)"/><path class="d" d="M355.153,361.535c-3.111-.964-6.4-1.461-9.582-2.162s-6.4-1.358-9.611-2-6.558-1.285-9.83-1.9-6.325-1.3-9.509-1.68a39.042,39.042,0,0,0-9.231.2q-4.63.526-9.29.745a134.164,134.164,0,0,1-18.769-.409,126.888,126.888,0,0,1-20.9-3.725c-.146,0-.19.175,0,.219a113.608,113.608,0,0,0,36.852,5.842c3.1,0,6.208-.19,9.29-.5a82.728,82.728,0,0,1,9.29-.789,59.753,59.753,0,0,1,9.757,1.461c3.228.6,6.441,1.212,9.669,1.782,3.652.643,7.3,1.3,10.969,1.87s7.3,1.388,10.9,1.651A.333.333,0,0,0,355.153,361.535Z" transform="translate(-154.159 -48.065)"/><path class="d" d="M378.09,322.1c-4.674-1.592-9.611-2.585-14.416-3.739S354,316.1,349.169,315c-9.231-2.089-18.579-3.856-27.752-6.412-2.41-.672-4.791-1.461-7.143-2.249a32.708,32.708,0,0,1-3.491-1.461c-1.154-.57-2.483-.92-3.622-1.461-.131-.088-.234.117-.1.2.92.57,1.767,1.256,2.717,1.811s2.1,1.11,3.184,1.607a59.875,59.875,0,0,0,6.062,2.381c4.294,1.461,8.764,2.469,13.146,3.491q14.46,3.308,28.964,6.471c2.717.584,5.448,1.169,8.18,1.709s5.711,1.212,8.6,1.534a.278.278,0,0,0,.175-.526Z" transform="translate(-131.728 -69.814)"/><path class="h" d="M345.26,333.884l66.809,9.085s-12.211-69.453-25.2-92.458c-12.81-22.7-26.949-7.7-32.338,19.762C348.488,300.713,345.26,333.884,345.26,333.884Z" transform="translate(-114.104 -99.273)"/><path class="d" d="M405.714,305.987c-1.87-.438-3.783-.716-5.653-1.125s-3.666-.687-5.507-.979c-3.754-.584-7.522-1.11-11.291-1.621-7.42-1.022-14.825-2.147-22.275-2.921-4.236-.467-8.457-1.1-12.693-1.461a.117.117,0,1,0,0,.234c7.376,1.724,14.9,3.009,22.377,4.221s14.84,2.352,22.289,3.17c2.089.219,4.177.5,6.281.6s4.309.292,6.456.336a.227.227,0,0,0,.015-.453Z" transform="translate(-112.759 -72.354)"/></g><g transform="translate(1099.213 281.772)"><path class="j" d="M443.161,146.446a44.578,44.578,0,0,1-74.492,28.2l-22.318,3.286,11.174-19.295a44.608,44.608,0,1,1,85.666-12.2Z" transform="translate(-344.831 -96.789)"/><path class="d" d="M443.64,146.57a44.783,44.783,0,0,1-9,22.611,40.9,40.9,0,0,1-8.764,8.632,45.28,45.28,0,0,1-22.771,8.851,41.712,41.712,0,0,1-6.193.117,37.86,37.86,0,0,1-6.164-.643,45,45,0,0,1-22.07-10.882l.526.161-22.275,3.418-1.621.248.818-1.461,11.1-19.324v.76a45.148,45.148,0,0,1,55.928-59.886,45.659,45.659,0,0,1,17.192,10.546A44.783,44.783,0,0,1,443.64,146.57Zm0,0a44.165,44.165,0,0,0-69-40.9A45.863,45.863,0,0,0,361.3,120.279a44.052,44.052,0,0,0-5.667,18.871,44.827,44.827,0,0,0,3.14,19.426l.161.409-.2.365L347.5,178.6l-.8-1.183,22.333-3.126h.307l.219.2a44.053,44.053,0,0,0,21.369,11,38.226,38.226,0,0,0,6.047.745,44.824,44.824,0,0,0,6.105,0,43.818,43.818,0,0,0,11.9-2.629,41.452,41.452,0,0,0,10.765-5.843,48.2,48.2,0,0,0,4.7-3.929,50.53,50.53,0,0,0,4.06-4.6A44.812,44.812,0,0,0,443.64,146.57Z" transform="translate(-345.31 -96.913)"/><path class="e" d="M367.331,156.533a4.382,4.382,0,0,1,4.382-4.586,4.586,4.586,0,1,1,0,9.173,4.382,4.382,0,0,1-4.382-4.586Zm1.855-10.575-1.037-35.508h7.1l-1.1,35.464Z" transform="translate(-335.168 -90.677)"/><path class="e" d="M379,156.533a4.382,4.382,0,0,1,4.382-4.586,4.586,4.586,0,0,1,0,9.173A4.382,4.382,0,0,1,379,156.533Zm1.855-10.575-1.037-35.508h7.1l-1.037,35.508Z" transform="translate(-329.793 -90.677)"/><path class="e" d="M390.632,156.533a4.382,4.382,0,0,1,4.382-4.586,4.586,4.586,0,1,1,0,9.173,4.382,4.382,0,0,1-4.382-4.586Zm1.855-10.575-1.037-35.508h7.1l-1.037,35.508Z" transform="translate(-324.436 -90.677)"/></g></g></svg>